HIERARCHY
ROOT Root
{
	OFFSET 0.00000 0.00000 0.00000
	CHANNELS 6 Xposition Yposition Zposition Zrotation Xrotation Yrotation
	JOINT Hips
	{
		OFFSET 0 0 0	
		CHANNELS 3 Zrotation Xrotation Yrotation
		JOINT Spine
		{
			OFFSET 0 4 0	
			CHANNELS 3 Zrotation Xrotation Yrotation
			JOINT Spine1
			{
				OFFSET 0 19.4 0	
				CHANNELS 3 Zrotation Xrotation Yrotation
				JOINT Spine2
				{
					OFFSET 0 16.6 0	
					CHANNELS 3 Zrotation Xrotation Yrotation
					JOINT LeftCollar
					{
						OFFSET 0 10 0	
						CHANNELS 3 Zrotation Xrotation Yrotation
						JOINT LeftArm
						{
							OFFSET 15.6 -2 3	
							CHANNELS 3 Zrotation Xrotation Yrotation
							JOINT LeftForeArm
							{
								OFFSET 3.5 -27 -1	
								CHANNELS 3 Zrotation Xrotation Yrotation
								JOINT LeftHand
								{
									OFFSET 1 -27 1	
									CHANNELS 3 Zrotation Xrotation Yrotation
									End Site
									{
										OFFSET 0 -15 0
									}
								}
							}
						}
					}
					JOINT RightCollar
					{
						OFFSET 0 10 0	
						CHANNELS 3 Zrotation Xrotation Yrotation
						JOINT RightArm
						{
							OFFSET -15.6 -2 3	
							CHANNELS 3 Zrotation Xrotation Yrotation
							JOINT RightForeArm
							{
								OFFSET -3.5 -27 -1	
								CHANNELS 3 Zrotation Xrotation Yrotation
								JOINT RightHand
								{
									OFFSET -1 -27 1	
									CHANNELS 3 Zrotation Xrotation Yrotation
									End Site
									{
										OFFSET 0 -15 0
									}
								}
							}
						}
					}
					JOINT Neck
					{
						OFFSET 0 10 0	
						CHANNELS 3 Zrotation Xrotation Yrotation
						JOINT Head
						{
							OFFSET 0 12.7 3	
							CHANNELS 3 Zrotation Xrotation Yrotation
							End Site
							{
								OFFSET 0 12.7 3
							}
						}
					}
				}
			}
		}
	}
	JOINT LeftHip
	{
		OFFSET 0 0 0	
		CHANNELS 3 Zrotation Xrotation Yrotation
		JOINT LeftUpLeg
		{
			OFFSET 8.8 -6 0	
			CHANNELS 3 Zrotation Xrotation Yrotation
			JOINT LeftLeg
			{
				OFFSET 0 -39 2	
				CHANNELS 3 Zrotation Xrotation Yrotation
				JOINT LeftFoot
				{
					OFFSET 0 -43 -2	
					CHANNELS 3 Zrotation Xrotation Yrotation
					JOINT LeftFootFront
					{
						OFFSET 0 -7 8.5	
						CHANNELS 3 Zrotation Xrotation Yrotation
						End Site
						{
							OFFSET 0 -0.5 9
						}
					}
				}
				JOINT LeftHeel
				{
					OFFSET 0 -43 -2	
					CHANNELS 3 Zrotation Xrotation Yrotation
					End Site
					{
						OFFSET 0 -7.5 -5
					}
				}
			}
		}
	}
	JOINT RightHip
	{
		OFFSET 0 0 0	
		CHANNELS 3 Zrotation Xrotation Yrotation
		JOINT RightUpLeg
		{
			OFFSET -8.8 -6 0	
			CHANNELS 3 Zrotation Xrotation Yrotation
			JOINT RightLeg
			{
				OFFSET 0 -39 2	
				CHANNELS 3 Zrotation Xrotation Yrotation
				JOINT RightFoot
				{
					OFFSET 0 -43 -2	
					CHANNELS 3 Zrotation Xrotation Yrotation
					JOINT RightFootFront
					{
						OFFSET 0 -7 8.5	
						CHANNELS 3 Zrotation Xrotation Yrotation
						End Site
						{
							OFFSET 0 -0.5 9
						}
					}
				}
				JOINT RightHeel
				{
					OFFSET 0 -43 -2	
					CHANNELS 3 Zrotation Xrotation Yrotation
					End Site
					{
						OFFSET 0 -7.5 -5
					}
				}
			}
		}
	}
}
MOTION
Frames: 21
Frame Time: 0.025
0 96.378 0 -0 0 -0 0.17111 0.96732 -1.8494 -0.25718 1.1747 0.88233 -0.25718 1.1747 0.88233 -0.21481 0.98698 0.74078 -0 0 -0 0.96722 -2.2009 -3.6605 0.10064 -0.648 -1.1063 -0 0 -0 -0 0 -0 1.504 -2.3889 0.97974 -0.40326 0.090434 -0.66038 -0 0 -0 0.78738 -4.0078 0.3801 0.78738 -4.0078 0.3801 0.17111 0.96732 -1.8494 0.17641 -1.142 4.123 1.3179 2.5105 2.6351 -0 0 -0 -0 0 -0 -0 0 -0 0.17111 0.96732 -1.8494 -0.21673 -1.216 0.081782 0.23988 3.8209 2.1117 -0 0 -0 -0 0 -0 -0 0 -0 
0 96.378 0 -0 0 -0 0.17426 0.97488 -1.8392 -0.26433 1.1746 0.88821 -0.26433 1.1746 0.88821 -0.2208 0.98693 0.74571 -0 0 -0 0.97999 -2.2094 -3.6695 0.10366 -0.65045 -1.0999 -0 0 -0 -0 0 -0 1.5119 -2.3939 0.97181 -0.39325 0.091 -0.66299 -0 0 -0 0.79173 -4.0064 0.37808 0.79173 -4.0064 0.37808 0.17426 0.97488 -1.8392 0.18608 -1.1512 4.1189 1.3072 2.5045 2.6374 -0 0 -0 -0 0 -0 -0 0 -0 0.17426 0.97488 -1.8392 -0.21788 -1.2234 0.0856 0.24485 3.8169 2.1136 -0 0 -0 -0 0 -0 -0 0 -0 
0 96.378 0 -0 0 -0 0.17741 0.98509 -1.8248 -0.27 1.176 0.89059 -0.27 1.176 0.89059 -0.22557 0.98813 0.74771 -0 0 -0 0.98778 -2.2248 -3.6665 0.10667 -0.6501 -1.0935 -0 0 -0 -0 0 -0 1.5121 -2.4045 0.97671 -0.37927 0.092089 -0.66648 -0 0 -0 0.793 -4.0063 0.38352 0.793 -4.0063 0.38352 0.17741 0.98509 -1.8248 0.19725 -1.1653 4.1175 1.2962 2.4973 2.6361 -0 0 -0 -0 0 -0 -0 0 -0 0.17741 0.98509 -1.8248 -0.21913 -1.2336 0.08865 0.25246 3.8115 2.1183 -0 0 -0 -0 0 -0 -0 0 -0 
0 96.378 0 -0 0 -0 0.17591 0.99528 -1.8091 -0.27158 1.1773 0.89141 -0.27158 1.1773 0.89141 -0.22689 0.9892 0.74839 -0 0 -0 0.99081 -2.2384 -3.6611 0.10644 -0.64568 -1.0923 -0 0 -0 -0 0 -0 1.5061 -2.4155 0.98449 -0.36598 0.094236 -0.66863 -0 0 -0 0.79058 -4.0054 0.39148 0.79058 -4.0054 0.39148 0.17591 0.99528 -1.8091 0.21046 -1.1818 4.1183 1.2883 2.4922 2.6316 -0 0 -0 -0 0 -0 -0 0 -0 0.17591 0.99528 -1.8091 -0.21618 -1.2447 0.087986 0.26079 3.8072 2.1262 -0 0 -0 -0 0 -0 -0 0 -0 
0 96.378 0 -0 0 -0 0.16727 1.0049 -1.7922 -0.26693 1.1791 0.89149 -0.26693 1.1791 0.89149 -0.22298 0.99072 0.74846 -0 0 -0 0.98763 -2.2489 -3.66 0.10086 -0.64045 -1.0954 -0 0 -0 -0 0 -0 1.4944 -2.4291 0.98899 -0.35591 0.097005 -0.66573 -0 0 -0 0.78203 -4.0051 0.4015 0.78203 -4.0051 0.4015 0.16727 1.0049 -1.7922 0.22979 -1.1984 4.1207 1.2816 2.4886 2.6237 -0 0 -0 -0 0 -0 -0 0 -0 0.16727 1.0049 -1.7922 -0.20497 -1.2566 0.086127 0.26909 3.8047 2.1303 -0 0 -0 -0 0 -0 -0 0 -0 
0 96.378 0 -0 0 -0 0.15646 1.0125 -1.7736 -0.25983 1.187 0.89163 -0.25983 1.187 0.89163 -0.21701 0.99737 0.74859 -0 0 -0 0.98376 -2.2692 -3.6681 0.090415 -0.63676 -1.0973 -0 0 -0 -0 0 -0 1.4834 -2.4576 0.98631 -0.3462 0.098184 -0.65685 -0 0 -0 0.77028 -4.0133 0.41399 0.77028 -4.0133 0.41399 0.15646 1.0125 -1.7736 0.2539 -1.2131 4.1297 1.2722 2.4869 2.6082 -0 0 -0 -0 0 -0 -0 0 -0 0.15646 1.0125 -1.7736 -0.19024 -1.2667 0.087759 0.27902 3.8033 2.1195 -0 0 -0 -0 0 -0 -0 0 -0 
0 96.378 0 -0 0 -0 0.1467 1.0172 -1.752 -0.25641 1.1977 0.89416 -0.25641 1.1977 0.89416 -0.21413 1.0064 0.75072 -0 0 -0 0.99221 -2.2897 -3.6902 0.076675 -0.63641 -1.0938 -0 0 -0 -0 0 -0 1.4842 -2.488 0.97418 -0.33601 0.09802 -0.64768 -0 0 -0 0.76639 -4.0269 0.42287 0.76639 -4.0269 0.42287 0.1467 1.0172 -1.752 0.27911 -1.2281 4.1471 1.2596 2.4898 2.586 -0 0 -0 -0 0 -0 -0 0 -0 0.1467 1.0172 -1.752 -0.17741 -1.2747 0.090172 0.29179 3.8027 2.101 -0 0 -0 -0 0 -0 -0 0 -0 
0 96.378 0 -0 0 -0 0.13862 1.0225 -1.7306 -0.25552 1.2077 0.89814 -0.25552 1.2077 0.89814 -0.21336 1.0147 0.75406 -0 0 -0 1.007 -2.304 -3.715 0.062075 -0.63854 -1.0842 -0 0 -0 -0 0 -0 1.4913 -2.5107 0.96485 -0.33196 0.098813 -0.63886 -0 0 -0 0.77065 -4.0421 0.42705 0.77065 -4.0421 0.42705 0.13862 1.0225 -1.7306 0.296 -1.2421 4.1599 1.2513 2.4908 2.5713 -0 0 -0 -0 0 -0 -0 0 -0 0.13862 1.0225 -1.7306 -0.16839 -1.2849 0.089862 0.30564 3.8047 2.0945 -0 0 -0 -0 0 -0 -0 0 -0 
0 96.378 0 -0 0 -0 0.13336 1.031 -1.7111 -0.25447 1.2154 0.90225 -0.25447 1.2154 0.90225 -0.21247 1.0212 0.75751 -0 0 -0 1.0181 -2.3142 -3.7343 0.049608 -0.63743 -1.0694 -0 0 -0 -0 0 -0 1.4955 -2.5244 0.96438 -0.33487 0.10291 -0.62958 -0 0 -0 0.77406 -4.055 0.42754 0.77406 -4.055 0.42754 0.13336 1.031 -1.7111 0.30623 -1.2561 4.1692 1.2459 2.4885 2.5608 -0 0 -0 -0 0 -0 -0 0 -0 0.13336 1.031 -1.7111 -0.16243 -1.2982 0.089752 0.31815 3.8064 2.0906 -0 0 -0 -0 0 -0 -0 0 -0 
0 96.378 0 -0 0 -0 0.12919 1.0435 -1.6892 -0.25281 1.2203 0.90551 -0.25281 1.2203 0.90551 -0.21106 1.0253 0.76024 -0 0 -0 1.0248 -2.3208 -3.7449 0.043427 -0.63065 -1.0532 -0 0 -0 -0 0 -0 1.4943 -2.5289 0.96957 -0.33733 0.10852 -0.61728 -0 0 -0 0.77378 -4.062 0.4244 0.77378 -4.062 0.4244 0.12919 1.0435 -1.6892 0.3164 -1.2721 4.1751 1.2394 2.4841 2.5485 -0 0 -0 -0 0 -0 -0 0 -0 0.12919 1.0435 -1.6892 -0.15608 -1.3132 0.09547 0.32911 3.8045 2.0722 -0 0 -0 -0 0 -0 -0 0 -0 
0 96.378 0 -0 0 -0 0.12516 1.0583 -1.6644 -0.25141 1.2257 0.9084 -0.25141 1.2257 0.9084 -0.20987 1.0298 0.76268 -0 0 -0 1.0296 -2.3296 -3.7512 0.048481 -0.61615 -1.0277 -0 0 -0 -0 0 -0 1.4925 -2.5334 0.97655 -0.33706 0.11386 -0.59894 -0 0 -0 0.77263 -4.0669 0.41895 0.77263 -4.0669 0.41895 0.12516 1.0583 -1.6644 0.32602 -1.29 4.1781 1.233 2.478 2.5315 -0 0 -0 -0 0 -0 -0 0 -0 0.12516 1.0583 -1.6644 -0.14907 -1.3286 0.10846 0.33855 3.7991 2.0455 -0 0 -0 -0 0 -0 -0 0 -0 
0 96.378 0 -0 0 -0 0.12492 1.0749 -1.6414 -0.25288 1.2356 0.91236 -0.25288 1.2356 0.91236 -0.21109 1.0382 0.76599 -0 0 -0 1.0384 -2.353 -3.7539 0.061866 -0.58953 -0.9959 -0 0 -0 -0 0 -0 1.4943 -2.5519 0.98543 -0.33825 0.12192 -0.5727 -0 0 -0 0.7732 -4.0763 0.41543 0.7732 -4.0763 0.41543 0.12492 1.0749 -1.6414 0.33061 -1.3098 4.1826 1.2274 2.472 2.512 -0 0 -0 -0 0 -0 -0 0 -0 0.12492 1.0749 -1.6414 -0.14801 -1.3451 0.11636 0.34684 3.7922 2.0279 -0 0 -0 -0 0 -0 -0 0 -0 
0 96.378 0 -0 0 -0 0.13032 1.0952 -1.6242 -0.25904 1.251 0.91906 -0.25904 1.251 0.91906 -0.21624 1.0511 0.77161 -0 0 -0 1.0535 -2.3961 -3.7535 0.073918 -0.56592 -0.98986 -0 0 -0 -0 0 -0 1.5044 -2.5898 0.99772 -0.34713 0.13493 -0.53378 -0 0 -0 0.77628 -4.0942 0.41657 0.77628 -4.0942 0.41657 0.13032 1.0952 -1.6242 0.32864 -1.3332 4.1913 1.2219 2.4653 2.4955 -0 0 -0 -0 0 -0 -0 0 -0 0.13032 1.0952 -1.6242 -0.15531 -1.3677 0.12198 0.35687 3.7867 2.0151 -0 0 -0 -0 0 -0 -0 0 -0 
0 96.378 0 -0 0 -0 0.13791 1.1206 -1.61 -0.26922 1.2662 0.92807 -0.26922 1.2662 0.92807 -0.22476 1.0639 0.77916 -0 0 -0 1.0766 -2.4415 -3.7573 0.085467 -0.5463 -1.0043 -0 0 -0 -0 0 -0 1.5258 -2.6305 1.0088 -0.3627 0.15195 -0.47232 -0 0 -0 0.78223 -4.1151 0.42195 0.78223 -4.1151 0.42195 0.13791 1.1206 -1.61 0.32398 -1.363 4.1999 1.2156 2.4599 2.4814 -0 0 -0 -0 0 -0 -0 0 -0 0.13791 1.1206 -1.61 -0.16593 -1.3991 0.12483 0.36919 3.7849 2.0075 -0 0 -0 -0 0 -0 -0 0 -0 
0 96.378 0 -0 0 -0 0.14398 1.15 -1.5957 -0.28129 1.2763 0.93958 -0.28129 1.2763 0.93958 -0.23487 1.0724 0.78881 -0 0 -0 1.1068 -2.4704 -3.7802 0.10133 -0.52714 -1.0232 -0 0 -0 -0 0 -0 1.5562 -2.6558 1.0125 -0.37923 0.17331 -0.3869 -0 0 -0 0.79078 -4.1326 0.42812 0.79078 -4.1326 0.42812 0.14398 1.15 -1.5957 0.3203 -1.4004 4.2066 1.2118 2.4606 2.4654 -0 0 -0 -0 0 -0 -0 0 -0 0.14398 1.15 -1.5957 -0.17471 -1.4366 0.12284 0.38156 3.7863 2.0106 -0 0 -0 -0 0 -0 -0 0 -0 
0 96.378 0 -0 0 -0 0.14367 1.1801 -1.5807 -0.2929 1.2833 0.95478 -0.2929 1.2833 0.95478 -0.24459 1.0783 0.80155 -0 0 -0 1.1427 -2.4852 -3.8319 0.1225 -0.5073 -1.0356 -0 0 -0 -0 0 -0 1.5922 -2.6668 1.0111 -0.39457 0.20178 -0.28765 -0 0 -0 0.80063 -4.1498 0.42987 0.80063 -4.1498 0.42987 0.14367 1.1801 -1.5807 0.322 -1.4429 4.2126 1.2121 2.4689 2.4482 -0 0 -0 -0 0 -0 -0 0 -0 0.14367 1.1801 -1.5807 -0.17738 -1.4749 0.1214 0.39421 3.7898 2.0157 -0 0 -0 -0 0 -0 -0 0 -0 
0 96.378 0 -0 0 -0 0.13729 1.2093 -1.5669 -0.30426 1.2974 0.97145 -0.30426 1.2974 0.97145 -0.25409 1.0901 0.81553 -0 0 -0 1.183 -2.5132 -3.9019 0.14773 -0.49122 -1.0372 -0 0 -0 -0 0 -0 1.6319 -2.6895 1.0182 -0.40662 0.24132 -0.18448 -0 0 -0 0.81065 -4.1851 0.42847 0.81065 -4.1851 0.42847 0.13729 1.2093 -1.5669 0.33084 -1.4858 4.2193 1.2119 2.4783 2.4323 -0 0 -0 -0 0 -0 -0 0 -0 0.13729 1.2093 -1.5669 -0.17594 -1.5121 0.12879 0.4079 3.7955 2.0079 -0 0 -0 -0 0 -0 -0 0 -0 
0 96.378 0 -0 0 -0 0.13005 1.2376 -1.5579 -0.31532 1.3293 0.98355 -0.31532 1.3293 0.98355 -0.26333 1.1169 0.82567 -0 0 -0 1.2235 -2.5828 -3.971 0.17413 -0.48427 -1.0266 -0 0 -0 -0 0 -0 1.6738 -2.7478 1.061 -0.41359 0.28612 -0.091728 -0 0 -0 0.81844 -4.2636 0.43398 0.81844 -4.2636 0.43398 0.13005 1.2376 -1.5579 0.34345 -1.5283 4.2297 1.206 2.4857 2.4161 -0 0 -0 -0 0 -0 -0 0 -0 0.13005 1.2376 -1.5579 -0.17636 -1.5516 0.15132 0.42271 3.8054 1.9818 -0 0 -0 -0 0 -0 -0 0 -0 
0 96.378 0 -0 0 -0 0.12679 1.2674 -1.5528 -0.32556 1.3859 0.98718 -0.32556 1.3859 0.98718 -0.27186 1.1645 0.82867 -0 0 -0 1.2612 -2.7113 -4.0258 0.19786 -0.48346 -0.99568 -0 0 -0 -0 0 -0 1.7129 -2.8586 1.1559 -0.41215 0.32301 -0.036191 -0 0 -0 0.82119 -4.4009 0.4532 0.82119 -4.4009 0.4532 0.12679 1.2674 -1.5528 0.34937 -1.5805 4.2483 1.2061 2.5014 2.3458 -0 0 -0 -0 0 -0 -0 0 -0 0.12679 1.2674 -1.5528 -0.18443 -1.6086 0.17928 0.43892 3.8288 1.9426 -0 0 -0 -0 0 -0 -0 0 -0 
0 96.378 0 -0 0 -0 0.13861 1.3023 -1.5368 -0.33989 1.4624 0.97968 -0.33989 1.4624 0.97968 -0.28382 1.2288 0.82232 -0 0 -0 1.3042 -2.887 -4.06 0.21613 -0.47751 -0.93387 -0 0 -0 -0 0 -0 1.7533 -3.0125 1.2823 -0.4 0.34327 -0.037687 -0 0 -0 0.81728 -4.5905 0.4802 0.81728 -4.5905 0.4802 0.13861 1.3023 -1.5368 0.32856 -1.6618 4.2862 1.2472 2.5448 2.069 -0 0 -0 -0 0 -0 -0 0 -0 0.13861 1.3023 -1.5368 -0.21056 -1.7119 0.17413 0.45575 3.8875 1.8884 -0 0 -0 -0 0 -0 -0 0 -0 
0 96.378 0 -0 0 -0 0.19386 1.3539 -1.4955 -0.37272 1.562 0.95966 -0.37272 1.562 0.95966 -0.31131 1.3125 0.8054 -0 0 -0 1.3604 -3.135 -4.0666 0.2417 -0.45434 -0.84828 -0 0 -0 -0 0 -0 1.8049 -3.2378 1.3894 -0.36886 0.34842 -0.096387 -0 0 -0 0.806 -4.8469 0.50635 0.806 -4.8469 0.50635 0.19386 1.3539 -1.4955 0.24522 -1.805 4.376 1.3601 2.6501 1.5215 -0 0 -0 -0 0 -0 -0 0 -0 0.19386 1.3539 -1.4955 -0.26507 -1.8927 0.12401 0.45933 4.0063 1.782 -0 0 -0 -0 0 -0 -0 0 -0 
